<svg xmlns="http://www.w3.org/2000/svg" viewBox="0 0 256 256" role="img" aria-labelledby="title desc">
  <title id="title">TideWise wave icon</title>
  <desc id="desc">A stylized ocean wave with a moon and fishing hook.</desc>
  <defs>
    <linearGradient id="sea" x1="35" y1="210" x2="222" y2="42" gradientUnits="userSpaceOnUse">
      <stop offset="0" stop-color="#2563eb"/>
      <stop offset="0.5" stop-color="#0891b2"/>
      <stop offset="1" stop-color="#0a7a70"/>
    </linearGradient>
    <linearGradient id="sky" x1="36" y1="24" x2="214" y2="226" gradientUnits="userSpaceOnUse">
      <stop offset="0" stop-color="#eaf9fb"/>
      <stop offset="1" stop-color="#b9edf2"/>
    </linearGradient>
  </defs>
  <rect width="256" height="256" rx="56" fill="url(#sky)"/>
  <path d="M43 157c25-48 67-77 126-87-25 21-25 47-4 70 16 17 40 24 66 21-11 35-36 58-75 69-42 12-82 5-121-20 34 7 63-1 88-24-31 6-58-3-80-29z" fill="url(#sea)"/>
  <path d="M43 157c37 19 76 18 116-2 28-14 51-13 70 3" fill="none" stroke="#ffffff" stroke-width="13" stroke-linecap="round"/>
  <path d="M68 187c37 14 72 13 106-2 20-9 39-10 58-3" fill="none" stroke="#ffffff" stroke-opacity="0.75" stroke-width="9" stroke-linecap="round"/>
  <circle cx="77" cy="72" r="24" fill="#e8b84b"/>
  <circle cx="87" cy="64" r="23" fill="#eaf9fb"/>
  <path d="M191 57v51c0 20-15 35-34 35-16 0-29-11-29-26 0-12 9-22 21-22 9 0 16 6 16 15" fill="none" stroke="#0a1e28" stroke-width="10" stroke-linecap="round"/>
  <circle cx="191" cy="57" r="8" fill="#0a1e28"/>
</svg>
